<svg width="170" height="32" viewBox="0 0 170 32" fill="none" xmlns="http://www.w3.org/2000/svg">
<path d="M12 28H20M16 17.3333V28V17.3333Z" stroke="#BED5F7" stroke-width="2" stroke-linecap="round" stroke-linejoin="round"/>
<path d="M15.9333 16H16.0667" stroke="#3881ED" stroke-width="3" stroke-linecap="round" stroke-linejoin="round"/>
<path d="M7.52001 24.48C5.84028 22.8024 4.69591 20.6642 4.23168 18.336C3.76744 16.0078 4.00421 13.5943 4.91202 11.4007C5.81984 9.2071 7.3579 7.33208 9.33161 6.01284C11.3053 4.69361 13.626 3.98944 16 3.98944C18.374 3.98944 20.6947 4.69361 22.6684 6.01284C24.6421 7.33208 26.1802 9.2071 27.088 11.4007C27.9958 13.5943 28.2326 16.0078 27.7683 18.336C27.3041 20.6642 26.1597 22.8024 24.48 24.48" stroke="#3881ED" stroke-width="2" stroke-linecap="round" stroke-linejoin="round"/>
<path d="M20.72 20.72C21.6506 19.787 22.2839 18.5991 22.5398 17.3063C22.7956 16.0136 22.6626 14.674 22.1576 13.4568C21.6525 12.2396 20.798 11.1994 19.702 10.4676C18.6061 9.73581 17.3178 9.34525 16 9.34525C14.6822 9.34525 13.3939 9.73581 12.2979 10.4676C11.202 11.1994 10.3475 12.2396 9.8424 13.4568C9.33732 14.674 9.20431 16.0136 9.46018 17.3063C9.71605 18.5991 10.3493 19.787 11.28 20.72" stroke="#3881ED" stroke-width="2" stroke-linecap="round" stroke-linejoin="round"/>
<path d="M45.2852 7.63672V20.1406H52.3398C52.9023 20.1406 53.332 20.2773 53.6289 20.5508C53.9336 20.8242 54.0859 21.168 54.0859 21.582C54.0859 22.0039 53.9375 22.3477 53.6406 22.6133C53.3438 22.8711 52.9102 23 52.3398 23H43.9375C43.1797 23 42.6328 22.832 42.2969 22.4961C41.9688 22.1602 41.8047 21.6172 41.8047 20.8672V7.63672C41.8047 6.93359 41.9609 6.40625 42.2734 6.05469C42.5938 5.70312 43.0117 5.52734 43.5273 5.52734C44.0508 5.52734 44.4727 5.70312 44.793 6.05469C45.1211 6.39844 45.2852 6.92578 45.2852 7.63672ZM59.3594 12.1016V21.3477C59.3594 21.9883 59.207 22.4727 58.9023 22.8008C58.5977 23.1289 58.2109 23.293 57.7422 23.293C57.2734 23.293 56.8906 23.125 56.5938 22.7891C56.3047 22.4531 56.1602 21.9727 56.1602 21.3477V12.1953C56.1602 11.5625 56.3047 11.0859 56.5938 10.7656C56.8906 10.4453 57.2734 10.2852 57.7422 10.2852C58.2109 10.2852 58.5977 10.4453 58.9023 10.7656C59.207 11.0859 59.3594 11.5312 59.3594 12.1016ZM57.7773 8.79688C57.332 8.79688 56.9492 8.66016 56.6289 8.38672C56.3164 8.11328 56.1602 7.72656 56.1602 7.22656C56.1602 6.77344 56.3203 6.40234 56.6406 6.11328C56.9688 5.81641 57.3477 5.66797 57.7773 5.66797C58.1914 5.66797 58.5586 5.80078 58.8789 6.06641C59.1992 6.33203 59.3594 6.71875 59.3594 7.22656C59.3594 7.71875 59.2031 8.10547 58.8906 8.38672C58.5781 8.66016 58.207 8.79688 57.7773 8.79688ZM74.4414 12.6289V21.9219C74.4414 22.9844 74.3281 23.8984 74.1016 24.6641C73.875 25.4297 73.5117 26.0625 73.0117 26.5625C72.5117 27.0625 71.8555 27.4336 71.043 27.6758C70.2383 27.918 69.2344 28.0391 68.0312 28.0391C66.9297 28.0391 65.9453 27.8828 65.0781 27.5703C64.2109 27.2656 63.543 26.8672 63.0742 26.375C62.6055 25.8906 62.3711 25.3906 62.3711 24.875C62.3711 24.4844 62.5039 24.1641 62.7695 23.9141C63.0352 23.6719 63.3555 23.5508 63.7305 23.5508C64.1992 23.5508 64.6094 23.7578 64.9609 24.1719C65.1328 24.3828 65.3086 24.5938 65.4883 24.8047C65.6758 25.0234 65.8789 25.207 66.0977 25.3555C66.3242 25.5117 66.5938 25.625 66.9062 25.6953C67.2188 25.7734 67.5781 25.8125 67.9844 25.8125C68.8125 25.8125 69.4531 25.6953 69.9062 25.4609C70.3672 25.2344 70.6875 24.9141 70.8672 24.5C71.0547 24.0859 71.1641 23.6406 71.1953 23.1641C71.2266 22.6953 71.25 21.9375 71.2656 20.8906C70.7734 21.5781 70.2031 22.1016 69.5547 22.4609C68.9141 22.8203 68.1484 23 67.2578 23C66.1875 23 65.25 22.7266 64.4453 22.1797C63.6484 21.6328 63.0352 20.8672 62.6055 19.8828C62.1758 18.8984 61.9609 17.7617 61.9609 16.4727C61.9609 15.5117 62.0898 14.6445 62.3477 13.8711C62.6133 13.0977 62.9883 12.4453 63.4727 11.9141C63.957 11.3828 64.5156 10.9844 65.1484 10.7188C65.7812 10.4453 66.4766 10.3086 67.2344 10.3086C68.1406 10.3086 68.9258 10.4844 69.5898 10.8359C70.2539 11.1797 70.8711 11.7227 71.4414 12.4648V12.0312C71.4414 11.4766 71.5781 11.0469 71.8516 10.7422C72.125 10.4375 72.4766 10.2852 72.9062 10.2852C73.5234 10.2852 73.9336 10.4883 74.1367 10.8945C74.3398 11.293 74.4414 11.8711 74.4414 12.6289ZM65.1719 16.6836C65.1719 17.9805 65.4531 18.9609 66.0156 19.625C66.5859 20.2891 67.3203 20.6211 68.2188 20.6211C68.75 20.6211 69.25 20.4805 69.7188 20.1992C70.1953 19.9102 70.582 19.4805 70.8789 18.9102C71.1758 18.332 71.3242 17.6328 71.3242 16.8125C71.3242 15.5078 71.0352 14.4922 70.457 13.7656C69.8867 13.0391 69.1328 12.6758 68.1953 12.6758C67.2812 12.6758 66.5469 13.0234 65.9922 13.7188C65.4453 14.4141 65.1719 15.4023 65.1719 16.6836ZM80.8047 7.47266V12.2188C81.2109 11.75 81.6055 11.3789 81.9883 11.1055C82.3789 10.832 82.8086 10.6289 83.2773 10.4961C83.7461 10.3555 84.25 10.2852 84.7891 10.2852C85.6016 10.2852 86.3203 10.457 86.9453 10.8008C87.5781 11.1445 88.0742 11.6445 88.4336 12.3008C88.6602 12.6836 88.8125 13.1133 88.8906 13.5898C88.9688 14.0586 89.0078 14.6016 89.0078 15.2188V21.3477C89.0078 21.9883 88.8594 22.4727 88.5625 22.8008C88.2734 23.1289 87.8867 23.293 87.4023 23.293C86.3477 23.293 85.8203 22.6445 85.8203 21.3477V15.9453C85.8203 14.9219 85.668 14.1367 85.3633 13.5898C85.0586 13.0352 84.4805 12.7578 83.6289 12.7578C83.0586 12.7578 82.543 12.9219 82.082 13.25C81.6289 13.5703 81.2891 14.0117 81.0625 14.5742C80.8906 15.0508 80.8047 15.8984 80.8047 17.1172V21.3477C80.8047 21.9805 80.6602 22.4648 80.3711 22.8008C80.0898 23.1289 79.6953 23.293 79.1875 23.293C78.1328 23.293 77.6055 22.6445 77.6055 21.3477V7.47266C77.6055 6.82422 77.7422 6.33984 78.0156 6.01953C78.2969 5.69141 78.6875 5.52734 79.1875 5.52734C79.6953 5.52734 80.0898 5.69141 80.3711 6.01953C80.6602 6.34766 80.8047 6.83203 80.8047 7.47266ZM92.3594 10.5664H92.7109V8.64453C92.7109 8.12891 92.7227 7.72656 92.7461 7.4375C92.7773 7.14063 92.8555 6.88672 92.9805 6.67578C93.1055 6.45703 93.2852 6.28125 93.5195 6.14844C93.7539 6.00781 94.0156 5.9375 94.3047 5.9375C94.7109 5.9375 95.0781 6.08984 95.4062 6.39453C95.625 6.59766 95.7617 6.84766 95.8164 7.14453C95.8789 7.43359 95.9102 7.84766 95.9102 8.38672V10.5664H97.082C97.5352 10.5664 97.8789 10.6758 98.1133 10.8945C98.3555 11.1055 98.4766 11.3789 98.4766 11.7148C98.4766 12.1445 98.3047 12.4453 97.9609 12.6172C97.625 12.7891 97.1406 12.875 96.5078 12.875H95.9102V18.7578C95.9102 19.2578 95.9258 19.6445 95.957 19.918C95.9961 20.1836 96.0898 20.4023 96.2383 20.5742C96.3945 20.7383 96.6445 20.8203 96.9883 20.8203C97.1758 20.8203 97.4297 20.7891 97.75 20.7266C98.0703 20.6562 98.3203 20.6211 98.5 20.6211C98.7578 20.6211 98.9883 20.7266 99.1914 20.9375C99.4023 21.1406 99.5078 21.3945 99.5078 21.6992C99.5078 22.2148 99.2266 22.6094 98.6641 22.8828C98.1016 23.1562 97.293 23.293 96.2383 23.293C95.2383 23.293 94.4805 23.125 93.9648 22.7891C93.4492 22.4531 93.1094 21.9883 92.9453 21.3945C92.7891 20.8008 92.7109 20.0078 92.7109 19.0156V12.875H92.2891C91.8281 12.875 91.4766 12.7656 91.2344 12.5469C90.9922 12.3281 90.8711 12.0508 90.8711 11.7148C90.8711 11.3789 90.9961 11.1055 91.2461 10.8945C91.5039 10.6758 91.875 10.5664 92.3594 10.5664ZM103.82 7.47266V12.2188C104.227 11.75 104.621 11.3789 105.004 11.1055C105.395 10.832 105.824 10.6289 106.293 10.4961C106.762 10.3555 107.266 10.2852 107.805 10.2852C108.617 10.2852 109.336 10.457 109.961 10.8008C110.594 11.1445 111.09 11.6445 111.449 12.3008C111.676 12.6836 111.828 13.1133 111.906 13.5898C111.984 14.0586 112.023 14.6016 112.023 15.2188V21.3477C112.023 21.9883 111.875 22.4727 111.578 22.8008C111.289 23.1289 110.902 23.293 110.418 23.293C109.363 23.293 108.836 22.6445 108.836 21.3477V15.9453C108.836 14.9219 108.684 14.1367 108.379 13.5898C108.074 13.0352 107.496 12.7578 106.645 12.7578C106.074 12.7578 105.559 12.9219 105.098 13.25C104.645 13.5703 104.305 14.0117 104.078 14.5742C103.906 15.0508 103.82 15.8984 103.82 17.1172V21.3477C103.82 21.9805 103.676 22.4648 103.387 22.8008C103.105 23.1289 102.711 23.293 102.203 23.293C101.148 23.293 100.621 22.6445 100.621 21.3477V7.47266C100.621 6.82422 100.758 6.33984 101.031 6.01953C101.312 5.69141 101.703 5.52734 102.203 5.52734C102.711 5.52734 103.105 5.69141 103.387 6.01953C103.676 6.34766 103.82 6.83203 103.82 7.47266ZM127.176 16.7891C127.176 17.7422 127.027 18.6211 126.73 19.4258C126.434 20.2305 126.004 20.9219 125.441 21.5C124.879 22.0781 124.207 22.5234 123.426 22.8359C122.645 23.1406 121.766 23.293 120.789 23.293C119.82 23.293 118.949 23.1367 118.176 22.8242C117.402 22.5117 116.73 22.0664 116.16 21.4883C115.598 20.9023 115.168 20.2148 114.871 19.4258C114.582 18.6289 114.438 17.75 114.438 16.7891C114.438 15.8203 114.586 14.9336 114.883 14.1289C115.18 13.3242 115.605 12.6367 116.16 12.0664C116.715 11.4961 117.387 11.0586 118.176 10.7539C118.965 10.4414 119.836 10.2852 120.789 10.2852C121.758 10.2852 122.637 10.4414 123.426 10.7539C124.215 11.0664 124.891 11.5117 125.453 12.0898C126.016 12.668 126.441 13.3555 126.73 14.1523C127.027 14.9492 127.176 15.8281 127.176 16.7891ZM123.965 16.7891C123.965 15.4844 123.676 14.4688 123.098 13.7422C122.527 13.0156 121.758 12.6523 120.789 12.6523C120.164 12.6523 119.613 12.8164 119.137 13.1445C118.66 13.4648 118.293 13.9414 118.035 14.5742C117.777 15.207 117.648 15.9453 117.648 16.7891C117.648 17.625 117.773 18.3555 118.023 18.9805C118.281 19.6055 118.645 20.0859 119.113 20.4219C119.59 20.75 120.148 20.9141 120.789 20.9141C121.758 20.9141 122.527 20.5508 123.098 19.8242C123.676 19.0898 123.965 18.0781 123.965 16.7891ZM138.016 21.4883V21.0781C137.633 21.5625 137.23 21.9688 136.809 22.2969C136.387 22.625 135.926 22.8672 135.426 23.0234C134.926 23.1875 134.355 23.2695 133.715 23.2695C132.941 23.2695 132.246 23.1094 131.629 22.7891C131.02 22.4688 130.547 22.0273 130.211 21.4648C129.812 20.7852 129.613 19.8086 129.613 18.5352V12.1953C129.613 11.5547 129.758 11.0781 130.047 10.7656C130.336 10.4453 130.719 10.2852 131.195 10.2852C131.68 10.2852 132.07 10.4453 132.367 10.7656C132.664 11.0859 132.812 11.5625 132.812 12.1953V17.3164C132.812 18.0586 132.875 18.6836 133 19.1914C133.125 19.6914 133.348 20.0859 133.668 20.375C133.996 20.6562 134.438 20.7969 134.992 20.7969C135.531 20.7969 136.039 20.6367 136.516 20.3164C136.992 19.9961 137.34 19.5781 137.559 19.0625C137.738 18.6094 137.828 17.6172 137.828 16.0859V12.1953C137.828 11.5625 137.977 11.0859 138.273 10.7656C138.57 10.4453 138.957 10.2852 139.434 10.2852C139.91 10.2852 140.293 10.4453 140.582 10.7656C140.871 11.0781 141.016 11.5547 141.016 12.1953V21.4648C141.016 22.0742 140.875 22.5312 140.594 22.8359C140.32 23.1406 139.965 23.293 139.527 23.293C139.09 23.293 138.727 23.1367 138.438 22.8242C138.156 22.5039 138.016 22.0586 138.016 21.4883ZM154.516 19.1094C154.516 19.9922 154.301 20.75 153.871 21.3828C153.441 22.0078 152.805 22.4844 151.961 22.8125C151.125 23.1328 150.105 23.293 148.902 23.293C147.754 23.293 146.77 23.1172 145.949 22.7656C145.129 22.4141 144.523 21.9766 144.133 21.4531C143.742 20.9219 143.547 20.3906 143.547 19.8594C143.547 19.5078 143.672 19.207 143.922 18.957C144.172 18.707 144.488 18.582 144.871 18.582C145.207 18.582 145.465 18.6641 145.645 18.8281C145.824 18.9922 145.996 19.2227 146.16 19.5195C146.488 20.0898 146.879 20.5156 147.332 20.7969C147.793 21.0781 148.418 21.2188 149.207 21.2188C149.848 21.2188 150.371 21.0781 150.777 20.7969C151.191 20.5078 151.398 20.1797 151.398 19.8125C151.398 19.25 151.184 18.8398 150.754 18.582C150.332 18.3242 149.633 18.0781 148.656 17.8438C147.555 17.5703 146.656 17.2852 145.961 16.9883C145.273 16.6836 144.723 16.2852 144.309 15.793C143.895 15.3008 143.688 14.6953 143.688 13.9766C143.688 13.3359 143.879 12.7305 144.262 12.1602C144.645 11.5898 145.207 11.1367 145.949 10.8008C146.699 10.457 147.602 10.2852 148.656 10.2852C149.484 10.2852 150.227 10.3711 150.883 10.543C151.547 10.7148 152.098 10.9453 152.535 11.2344C152.98 11.5234 153.316 11.8438 153.543 12.1953C153.777 12.5469 153.895 12.8906 153.895 13.2266C153.895 13.5938 153.77 13.8945 153.52 14.1289C153.277 14.3633 152.93 14.4805 152.477 14.4805C152.148 14.4805 151.867 14.3867 151.633 14.1992C151.406 14.0117 151.145 13.7305 150.848 13.3555C150.605 13.043 150.32 12.793 149.992 12.6055C149.664 12.418 149.219 12.3242 148.656 12.3242C148.078 12.3242 147.598 12.4492 147.215 12.6992C146.832 12.9414 146.641 13.2461 146.641 13.6133C146.641 13.9492 146.781 14.2266 147.062 14.4453C147.344 14.6562 147.723 14.832 148.199 14.9727C148.676 15.1133 149.332 15.2852 150.168 15.4883C151.16 15.7305 151.969 16.0195 152.594 16.3555C153.227 16.6914 153.703 17.0898 154.023 17.5508C154.352 18.0039 154.516 18.5234 154.516 19.1094ZM166.152 17.5742H159.895C159.902 18.3008 160.047 18.9414 160.328 19.4961C160.617 20.0508 160.996 20.4688 161.465 20.75C161.941 21.0312 162.465 21.1719 163.035 21.1719C163.418 21.1719 163.766 21.1289 164.078 21.043C164.398 20.9492 164.707 20.8086 165.004 20.6211C165.301 20.4258 165.574 20.2188 165.824 20C166.074 19.7812 166.398 19.4844 166.797 19.1094C166.961 18.9688 167.195 18.8984 167.5 18.8984C167.828 18.8984 168.094 18.9883 168.297 19.168C168.5 19.3477 168.602 19.6016 168.602 19.9297C168.602 20.2188 168.488 20.5586 168.262 20.9492C168.035 21.332 167.691 21.7031 167.23 22.0625C166.777 22.4141 166.203 22.707 165.508 22.9414C164.82 23.1758 164.027 23.293 163.129 23.293C161.074 23.293 159.477 22.707 158.336 21.5352C157.195 20.3633 156.625 18.7734 156.625 16.7656C156.625 15.8203 156.766 14.9453 157.047 14.1406C157.328 13.3281 157.738 12.6328 158.277 12.0547C158.816 11.4766 159.48 11.0352 160.27 10.7305C161.059 10.418 161.934 10.2617 162.895 10.2617C164.145 10.2617 165.215 10.5273 166.105 11.0586C167.004 11.582 167.676 12.2617 168.121 13.0977C168.566 13.9336 168.789 14.7852 168.789 15.6523C168.789 16.457 168.559 16.9805 168.098 17.2227C167.637 17.457 166.988 17.5742 166.152 17.5742ZM159.895 15.7578H165.695C165.617 14.6641 165.32 13.8477 164.805 13.3086C164.297 12.7617 163.625 12.4883 162.789 12.4883C161.992 12.4883 161.336 12.7656 160.82 13.3203C160.312 13.8672 160.004 14.6797 159.895 15.7578Z" fill="#515C6D"/>
</svg>
